# xmcd CD database file
#
# Track frame offsets:
#	150
#	14382
#	25134
#	39775
#	57316
#	73732
#	94716
#	108234
#	121530
#	146663
#	168515
#	178507
#	196204
#	219258
#	238458
#
# Disc length: 3411 seconds
#
# Revision: 0
# Processed by: cddbd v1.5.2PL0 Copyright (c) Steve Scherf et al.
# Submitted via: CDex 1.51
#
DISCID=c70d510f
DTITLE=R. J. Mischo - West Wind Blowin
DYEAR=2004
DGENRE=Blues
TTITLE0=Money Back Guarantee
TTITLE1=R. J. Getup! Milk That Cow
TTITLE2=Watch Out
TTITLE3=What I Got To Have
TTITLE4=West Winds Are Blowing
TTITLE5=Bit Off More Than I Can Chew
TTITLE6=Goat Whiskers
TTITLE7=Goin' In Your Direction
TTITLE8=Jelly Selling Woman
TTITLE9=I Feel So Good
TTITLE10=Courtin' In A Cadillac
TTITLE11=Miss Heidi Ho
TTITLE12=It's My Life, Baby
TTITLE13=How Much More
TTITLE14=South City Fog
EXTD=YEAR: 2004
EXTT0=
EXTT1=
EXTT2=
EXTT3=
EXTT4=
EXTT5=
EXTT6=
EXTT7=
EXTT8=
EXTT9=
EXTT10=
EXTT11=
EXTT12=
EXTT13=
EXTT14=
PLAYORDER=
